<svg width="25" height="24" viewBox="0 0 25 24" fill="none" xmlns="http://www.w3.org/2000/svg">
<path fill-rule="evenodd" clip-rule="evenodd" d="M13.0104 8.796V10.493C13.3657 9.95168 13.8556 9.5119 14.4319 9.21671C15.0083 8.92152 15.6514 8.78103 16.2984 8.809C19.7534 8.809 20.5004 10.969 20.5004 13.779V19.5H17.3004V14.428C17.3004 13.218 17.0564 11.662 15.1724 11.662C13.3454 11.662 13.0334 12.979 13.0334 14.338V19.5H9.84336V8.796H13.0104ZM7.70036 6.106C7.69997 6.423 7.606 6.73284 7.43024 6.99665C7.25448 7.26047 7.00475 7.46653 6.71236 7.589C6.42009 7.71048 6.09828 7.74226 5.78789 7.68029C5.47751 7.61832 5.19257 7.4654 4.96936 7.241C4.74572 7.01646 4.59347 6.73081 4.53175 6.41997C4.47003 6.10913 4.50159 5.78698 4.62247 5.49403C4.74335 5.20108 4.94814 4.95041 5.21111 4.77354C5.47407 4.59667 5.78345 4.5015 6.10036 4.5C6.31098 4.5 6.51953 4.54158 6.71404 4.62236C6.90855 4.70315 7.0852 4.82154 7.23386 4.97075C7.38251 5.11996 7.50024 5.29705 7.58029 5.49186C7.66035 5.68668 7.70115 5.89538 7.70036 6.106Z" fill="white"/>
<path d="M7.7 8.80908H4.5V19.5001H7.7V8.80908Z" fill="white"/>
</svg>
