<svg width="24" height="24" viewBox="0 0 24 24" fill="none" xmlns="http://www.w3.org/2000/svg">
<path fill-rule="evenodd" clip-rule="evenodd" d="M12.5104 8.796V10.493C12.8657 9.95168 13.3556 9.5119 13.9319 9.21671C14.5083 8.92152 15.1514 8.78103 15.7984 8.809C19.2534 8.809 20.0004 10.969 20.0004 13.779V19.5H16.8004V14.428C16.8004 13.218 16.5564 11.662 14.6724 11.662C12.8454 11.662 12.5334 12.979 12.5334 14.338V19.5H9.34336V8.796H12.5104ZM7.20036 6.106C7.19997 6.423 7.106 6.73284 6.93024 6.99665C6.75448 7.26047 6.50475 7.46653 6.21236 7.589C5.92009 7.71048 5.59828 7.74226 5.28789 7.68029C4.97751 7.61832 4.69257 7.4654 4.46936 7.241C4.24572 7.01646 4.09347 6.73081 4.03175 6.41997C3.97003 6.10913 4.00159 5.78698 4.12247 5.49403C4.24335 5.20108 4.44814 4.95041 4.71111 4.77354C4.97407 4.59667 5.28345 4.5015 5.60036 4.5C5.81098 4.5 6.01953 4.54158 6.21404 4.62236C6.40855 4.70315 6.5852 4.82154 6.73386 4.97075C6.88251 5.11996 7.00024 5.29705 7.08029 5.49186C7.16035 5.68668 7.20115 5.89538 7.20036 6.106Z" fill="white"/>
<path d="M7.2 8.80908H4V19.5001H7.2V8.80908Z" fill="white"/>
</svg>
