<svg width="24" height="24" viewBox="0 0 24 24" fill="none" xmlns="http://www.w3.org/2000/svg">
<path d="M12.0004 9.55224L15.6352 8.10024L6.63519 4.50024L3.53199 5.74104C3.37542 5.80338 3.22839 5.88741 3.09519 5.99064L12.0004 9.55224ZM2.44239 7.02384C2.4144 7.15114 2.40032 7.2811 2.40039 7.41144V16.5866C2.40033 16.9465 2.50811 17.298 2.70982 17.596C2.91152 17.894 3.1979 18.1246 3.53199 18.2582L10.4404 21.0218C10.7532 21.1466 11.0732 21.2322 11.4004 21.2786V10.6058L2.44239 7.02384ZM12.6004 21.2798C12.9294 21.2325 13.2517 21.1463 13.5604 21.023L20.4688 18.2594C20.8031 18.1258 21.0896 17.8949 21.2913 17.5967C21.493 17.2985 21.6007 16.9467 21.6004 16.5866V7.41144C21.6004 7.27864 21.5864 7.14904 21.5584 7.02264L12.6004 10.6058V21.2798ZM20.9056 5.99184L17.2504 7.45464L8.25039 3.85464L10.4404 2.97624C11.4418 2.57563 12.559 2.57563 13.5604 2.97624L20.4688 5.73984C20.6254 5.80219 20.7724 5.88621 20.9056 5.98944" fill="#F26122"/>
</svg>
