<svg width="24" height="24" viewBox="0 0 24 24" fill="none" xmlns="http://www.w3.org/2000/svg">
<path d="M0 4C0 1.79086 1.79086 0 4 0H20C22.2091 0 24 1.79086 24 4V20C24 22.2091 22.2091 24 20 24H4C1.79086 24 0 22.2091 0 20V4Z" fill="#F26426"/>
<path d="M13.2541 18.516C12.7501 18.516 12.2275 18.4553 11.6861 18.334C11.1448 18.222 10.6408 18.0213 10.1741 17.732C9.70748 17.452 9.32482 17.0693 9.02615 16.584C8.73682 16.108 8.59215 15.506 8.59215 14.778C8.59215 14.106 8.72748 13.476 8.99815 12.888C9.26882 12.3 9.65148 11.768 10.1461 11.292C10.6501 10.816 11.2428 10.4147 11.9241 10.088C12.6055 9.76133 13.3568 9.528 14.1781 9.388L14.4721 10.48C13.7908 10.6013 13.1608 10.7833 12.5821 11.026C12.0035 11.2687 11.4995 11.5673 11.0701 11.922C10.6501 12.2673 10.3235 12.664 10.0901 13.112C9.85682 13.5693 9.74015 14.0687 9.74015 14.61C9.74015 15.0487 9.81482 15.4267 9.96415 15.744C10.1135 16.0613 10.3095 16.3227 10.5521 16.528C10.8041 16.7427 11.0841 16.9107 11.3921 17.032C11.7001 17.1533 12.0128 17.2373 12.3301 17.284C12.6568 17.34 12.9648 17.368 13.2541 17.368C13.7488 17.368 14.2528 17.3213 14.7661 17.228C15.2795 17.144 15.7461 17.0133 16.1661 16.836L16.5301 17.816C16.3061 17.928 16.0075 18.0353 15.6341 18.138C15.2701 18.25 14.8781 18.3387 14.4581 18.404C14.0381 18.4787 13.6368 18.516 13.2541 18.516ZM10.9441 11.096C10.5708 11.0027 10.2348 10.8347 9.93615 10.592C9.63748 10.3493 9.39948 10.06 9.22215 9.724C9.05415 9.388 8.97015 9.03333 8.97015 8.66C8.97015 8.072 9.10548 7.582 9.37615 7.19C9.65615 6.798 10.0108 6.504 10.4401 6.308C10.8788 6.112 11.3408 6.014 11.8261 6.014C12.0408 6.014 12.2695 6.03267 12.5121 6.07C12.7548 6.10733 12.9881 6.16333 13.2121 6.238L12.9741 7.316C12.7875 7.26933 12.5915 7.232 12.3861 7.204C12.1808 7.176 11.9941 7.162 11.8261 7.162C11.4901 7.162 11.1915 7.22267 10.9301 7.344C10.6688 7.46533 10.4635 7.63333 10.3141 7.848C10.1648 8.05333 10.0901 8.296 10.0901 8.576C10.0901 8.828 10.1601 9.05667 10.3001 9.262C10.4495 9.458 10.6361 9.63067 10.8601 9.78C11.0841 9.92 11.3128 10.0273 11.5461 10.102C11.7795 10.1673 11.9848 10.1953 12.1621 10.186L10.9441 11.096Z" fill="white"/>
</svg>
