<svg width="44" height="44" viewBox="0 0 44 44" fill="none" xmlns="http://www.w3.org/2000/svg">
<path d="M0 22C0 9.84974 9.84974 0 22 0C34.1503 0 44 9.84974 44 22C44 34.1503 34.1503 44 22 44C9.84974 44 0 34.1503 0 22Z" fill="#FEEEE7"/>
<path d="M30 31C30 29.6044 30 28.9067 29.8278 28.3389C29.44 27.0605 28.4395 26.06 27.1611 25.6722C26.5933 25.5 25.8956 25.5 24.5 25.5H19.5C18.1044 25.5 17.4067 25.5 16.8389 25.6722C15.5605 26.06 14.56 27.0605 14.1722 28.3389C14 28.9067 14 29.6044 14 31M26.5 17.5C26.5 19.9853 24.4853 22 22 22C19.5147 22 17.5 19.9853 17.5 17.5C17.5 15.0147 19.5147 13 22 13C24.4853 13 26.5 15.0147 26.5 17.5Z" stroke="#F26426" stroke-width="2" stroke-linecap="round" stroke-linejoin="round"/>
</svg>
