<svg width="25" height="24" viewBox="0 0 25 24" fill="none" xmlns="http://www.w3.org/2000/svg">
<path d="M17.5 8.5C18.3284 8.5 19 7.82843 19 7C19 6.17157 18.3284 5.5 17.5 5.5C16.6716 5.5 16 6.17157 16 7C16 7.82843 16.6716 8.5 17.5 8.5Z" fill="white"/>
<path d="M16.5 3C19.26 3 21.5 5.24 21.5 8V16C21.5 18.76 19.26 21 16.5 21H8.5C5.74 21 3.5 18.76 3.5 16V8C3.5 5.24 5.74 3 8.5 3H12.5H16.5Z" stroke="white" stroke-width="2" stroke-linecap="round" stroke-linejoin="round"/>
<path d="M12.5 8C14.71 8 16.5 9.79 16.5 12C16.5 14.21 14.71 16 12.5 16C10.29 16 8.5 14.21 8.5 12C8.5 9.79 10.29 8 12.5 8Z" stroke="white" stroke-width="2" stroke-linecap="round" stroke-linejoin="round"/>
</svg>
