<svg width="25" height="24" viewBox="0 0 25 24" fill="none" xmlns="http://www.w3.org/2000/svg">
<g clip-path="url(#clip0_5175_877)">
<path d="M24.25 12C24.25 5.37262 18.8774 0 12.25 0C5.62262 0 0.25 5.37262 0.25 12C0.25 17.9895 4.63825 22.954 10.375 23.8542V15.4688H7.32812V12H10.375V9.35625C10.375 6.34875 12.1666 4.6875 14.9076 4.6875C16.2205 4.6875 17.5938 4.92188 17.5938 4.92188V7.875H16.0806C14.5899 7.875 14.125 8.80003 14.125 9.74906V12H17.4531L16.9211 15.4688H14.125V23.8542C19.8617 22.954 24.25 17.9896 24.25 12Z" fill="#1877F2"/>
<path d="M16.9211 15.4688L17.4531 12H14.125V9.74906C14.125 8.79994 14.5899 7.875 16.0806 7.875H17.5938V4.92188C17.5938 4.92188 16.2205 4.6875 14.9075 4.6875C12.1666 4.6875 10.375 6.34875 10.375 9.35625V12H7.32812V15.4688H10.375V23.8542C10.9953 23.9514 11.6222 24.0001 12.25 24C12.8778 24.0001 13.5047 23.9514 14.125 23.8542V15.4688H16.9211Z" fill="white"/>
</g>
<defs>
<clipPath id="clip0_5175_877">
<rect width="24" height="24" fill="white" transform="translate(0.25)"/>
</clipPath>
</defs>
</svg>
