<svg width="48" height="52" viewBox="0 0 48 52" fill="none" xmlns="http://www.w3.org/2000/svg">
<mask id="mask0_5556_6808" style="mask-type:alpha" maskUnits="userSpaceOnUse" x="12" y="1" width="23" height="23">
<path d="M23.7341 1.39801L14.208 1.40942L16.7093 3.9107C14.2035 5.95785 12.603 9.07211 12.603 12.5603C12.603 12.5986 12.6032 12.6369 12.6036 12.6751L12.6132 22.1516L15.1162 19.6503C17.1634 22.1561 20.2777 23.7566 23.7659 23.7566C27.396 23.7566 30.621 22.0239 32.6596 19.3405L28.5597 15.1975C27.6121 16.95 25.759 18.0761 23.766 18.0761C21.9741 18.0761 20.1893 17.0239 19.2375 15.5302L22.1396 12.6281L18.2839 12.6273C18.2837 12.605 18.2835 12.5828 18.2835 12.5605C18.2835 10.7685 19.3357 8.98372 20.8295 8.03195L23.7316 10.9341L23.7323 7.07893C23.7546 7.07865 23.7769 7.07851 23.7993 7.07851C25.5912 7.07851 27.376 8.1307 28.3278 9.62444L25.4257 12.5265L34.9614 12.5284L34.9617 12.5291L34.9503 3.00302L32.4491 5.50429C30.4019 2.99849 27.2876 1.39801 23.7994 1.39801C23.7775 1.39801 23.756 1.39788 23.7341 1.39801Z" fill="black"/>
</mask>
<g mask="url(#mask0_5556_6808)">
<path d="M34.9618 12.529C34.9618 12.5122 34.9504 3.00296 34.9504 3.00296L32.4491 5.50424C30.402 2.99843 27.2877 1.39795 23.7995 1.39795C20.1694 1.39795 16.9444 3.13067 14.9058 5.81406L19.0057 9.95708C19.9533 8.20456 21.8064 7.07845 23.7993 7.07845C25.5913 7.07845 27.3761 8.13065 28.3279 9.62438L25.4258 12.5265L34.9615 12.5284" fill="#1C3AA9"/>
<g filter="url(#filter0_d_5556_6808)">
<path d="M23.7341 1.39795L14.208 1.40937L16.7093 3.91064C14.2035 5.9578 12.603 9.07205 12.603 12.5603C12.603 16.1904 14.3358 19.4154 17.0191 21.454L21.1622 17.3541C19.4097 16.4065 18.2835 14.5534 18.2835 12.5604C18.2835 10.7685 19.3357 8.98366 20.8295 8.03189L23.7316 10.934L23.7334 1.39827" fill="#4285F4"/>
</g>
<g filter="url(#filter1_d_5556_6808)">
<path d="M12.6035 12.6255L12.6132 22.1515L15.1162 19.6503C17.1634 22.1561 20.2776 23.7565 23.7658 23.7565C27.3959 23.7565 30.6209 22.0238 32.6596 19.3404L28.5597 15.1974C27.6121 16.9499 25.759 18.076 23.766 18.076C21.974 18.076 20.1892 17.0238 19.2375 15.5301L22.1396 12.628L12.6038 12.6261" fill="#ABABAB"/>
</g>
</g>
<path d="M2.1368 37.1863V40.9775H1.36774V36.4796H2.11601L2.1368 37.1863ZM3.54189 36.4546L3.53773 37.1697C3.47399 37.1558 3.41302 37.1475 3.35482 37.1447C3.29939 37.1392 3.23565 37.1364 3.1636 37.1364C2.98623 37.1364 2.82964 37.1641 2.69384 37.2195C2.55805 37.275 2.44303 37.3526 2.34881 37.4523C2.25458 37.5521 2.17975 37.6713 2.12432 37.8098C2.07167 37.9456 2.03703 38.0953 2.0204 38.2588L1.80423 38.3835C1.80423 38.1119 1.83056 37.857 1.88321 37.6186C1.93864 37.3803 2.02317 37.1697 2.1368 36.9867C2.25042 36.8011 2.39454 36.6569 2.56913 36.5544C2.7465 36.4491 2.95713 36.3964 3.20101 36.3964C3.25644 36.3964 3.32018 36.4034 3.39223 36.4172C3.46429 36.4283 3.51418 36.4408 3.54189 36.4546ZM6.03614 41.0607C5.72297 41.0607 5.4389 41.008 5.18394 40.9027C4.93174 40.7946 4.71419 40.6436 4.53127 40.4496C4.35113 40.2556 4.21257 40.0256 4.11557 39.7595C4.01857 39.4935 3.97007 39.2025 3.97007 38.8865V38.7119C3.97007 38.3461 4.02411 38.0205 4.1322 37.735C4.24028 37.4468 4.38716 37.2029 4.57285 37.0034C4.75853 36.8038 4.96915 36.6528 5.20472 36.5502C5.44029 36.4477 5.68417 36.3964 5.93637 36.3964C6.25785 36.3964 6.53499 36.4519 6.76778 36.5627C7.00335 36.6736 7.19596 36.8288 7.34562 37.0283C7.49527 37.2251 7.60613 37.4579 7.67819 37.7267C7.75024 37.9928 7.78627 38.2838 7.78627 38.5997V38.9447H4.42735V38.317H7.01721V38.2588C7.00612 38.0593 6.96455 37.8653 6.8925 37.6768C6.82321 37.4884 6.71236 37.3332 6.55993 37.2112C6.4075 37.0893 6.19965 37.0283 5.93637 37.0283C5.76177 37.0283 5.60103 37.0657 5.45415 37.1406C5.30726 37.2126 5.18117 37.3207 5.07585 37.4648C4.97054 37.6089 4.88878 37.7849 4.83058 37.9928C4.77239 38.2006 4.74329 38.4403 4.74329 38.7119V38.8865C4.74329 39.0999 4.77239 39.3008 4.83058 39.4893C4.89156 39.675 4.97885 39.8385 5.09248 39.9798C5.20888 40.1212 5.34883 40.232 5.51235 40.3124C5.67863 40.3928 5.86708 40.433 6.07771 40.433C6.34931 40.433 6.57933 40.3775 6.76778 40.2667C6.95624 40.1558 7.12114 40.0076 7.26248 39.8219L7.72807 40.1919C7.63107 40.3387 7.50775 40.4787 7.35809 40.6117C7.20844 40.7447 7.02414 40.8528 6.8052 40.936C6.58903 41.0191 6.33268 41.0607 6.03614 41.0607ZM12.4547 39.0528H13.2528C13.2113 39.4353 13.1018 39.7775 12.9244 40.0796C12.7471 40.3817 12.4962 40.6214 12.172 40.7988C11.8477 40.9734 11.4431 41.0607 10.9581 41.0607C10.6034 41.0607 10.2805 40.9942 9.98952 40.8611C9.7013 40.7281 9.45326 40.5397 9.24541 40.2958C9.03755 40.0491 8.87681 39.754 8.76318 39.4103C8.65233 39.0639 8.5969 38.6787 8.5969 38.2547V37.6519C8.5969 37.2279 8.65233 36.844 8.76318 36.5004C8.87681 36.1539 9.03894 35.8574 9.24956 35.6107C9.46296 35.3641 9.71931 35.1743 10.0186 35.0412C10.3179 34.9082 10.6547 34.8417 11.0288 34.8417C11.4861 34.8417 11.8727 34.9276 12.1886 35.0994C12.5046 35.2713 12.7498 35.5096 12.9244 35.8144C13.1018 36.1165 13.2113 36.4671 13.2528 36.8662H12.4547C12.4159 36.5835 12.3438 36.341 12.2385 36.1387C12.1332 35.9336 11.9835 35.7756 11.7895 35.6648C11.5955 35.5539 11.342 35.4985 11.0288 35.4985C10.76 35.4985 10.523 35.5498 10.3179 35.6523C10.1156 35.7549 9.94518 35.9004 9.80661 36.0888C9.67081 36.2773 9.56827 36.5031 9.49899 36.7664C9.4297 37.0297 9.39506 37.3221 9.39506 37.6436V38.2547C9.39506 38.5512 9.42555 38.8297 9.48652 39.0902C9.55026 39.3507 9.64587 39.5794 9.77335 39.7761C9.90084 39.9729 10.063 40.1281 10.2597 40.2417C10.4565 40.3526 10.6893 40.408 10.9581 40.408C11.299 40.408 11.5706 40.354 11.7729 40.2459C11.9752 40.1378 12.1276 39.9826 12.2302 39.7803C12.3355 39.578 12.4103 39.3355 12.4547 39.0528ZM16.5868 35.4611L14.5831 40.9775H13.7642L16.0713 34.9248H16.5993L16.5868 35.4611ZM18.2663 40.9775L16.2584 35.4611L16.2459 34.9248H16.7739L19.0894 40.9775H18.2663ZM18.1623 38.7369V39.3937H14.7619V38.7369H18.1623ZM22.1324 38.6038H20.5153V37.9512H22.1324C22.4455 37.9512 22.6991 37.9013 22.8931 37.8015C23.0871 37.7018 23.2284 37.5632 23.3171 37.3858C23.4086 37.2085 23.4543 37.0061 23.4543 36.7789C23.4543 36.571 23.4086 36.3757 23.3171 36.1927C23.2284 36.0098 23.0871 35.8629 22.8931 35.7521C22.6991 35.6385 22.4455 35.5816 22.1324 35.5816H20.7023V40.9775H19.9V34.9248H22.1324C22.5896 34.9248 22.9762 35.0038 23.2922 35.1618C23.6081 35.3198 23.8478 35.5387 24.0114 35.8186C24.1749 36.0957 24.2566 36.4131 24.2566 36.7706C24.2566 37.1586 24.1749 37.4897 24.0114 37.7641C23.8478 38.0385 23.6081 38.2477 23.2922 38.3918C22.9762 38.5332 22.5896 38.6038 22.1324 38.6038ZM27.5075 34.9248V40.9775H26.7176V34.9248H27.5075ZM29.453 34.9248V35.5816H24.7763V34.9248H29.453ZM33.8886 39.0528H34.6867C34.6452 39.4353 34.5357 39.7775 34.3583 40.0796C34.181 40.3817 33.9302 40.6214 33.6059 40.7988C33.2816 40.9734 32.877 41.0607 32.392 41.0607C32.0373 41.0607 31.7144 40.9942 31.4234 40.8611C31.1352 40.7281 30.8872 40.5397 30.6793 40.2958C30.4715 40.0491 30.3107 39.754 30.1971 39.4103C30.0862 39.0639 30.0308 38.6787 30.0308 38.2547V37.6519C30.0308 37.2279 30.0862 36.844 30.1971 36.5004C30.3107 36.1539 30.4728 35.8574 30.6835 35.6107C30.8969 35.3641 31.1532 35.1743 31.4525 35.0412C31.7518 34.9082 32.0886 34.8417 32.4627 34.8417C32.92 34.8417 33.3066 34.9276 33.6225 35.0994C33.9385 35.2713 34.1837 35.5096 34.3583 35.8144C34.5357 36.1165 34.6452 36.4671 34.6867 36.8662H33.8886C33.8498 36.5835 33.7777 36.341 33.6724 36.1387C33.5671 35.9336 33.4174 35.7756 33.2234 35.6648C33.0295 35.5539 32.7759 35.4985 32.4627 35.4985C32.1939 35.4985 31.9569 35.5498 31.7518 35.6523C31.5495 35.7549 31.3791 35.9004 31.2405 36.0888C31.1047 36.2773 31.0022 36.5031 30.9329 36.7664C30.8636 37.0297 30.829 37.3221 30.829 37.6436V38.2547C30.829 38.5512 30.8595 38.8297 30.9204 39.0902C30.9842 39.3507 31.0798 39.5794 31.2073 39.7761C31.3347 39.9729 31.4969 40.1281 31.6936 40.2417C31.8904 40.3526 32.1232 40.408 32.392 40.408C32.7329 40.408 33.0045 40.354 33.2068 40.2459C33.4091 40.1378 33.5616 39.9826 33.6641 39.7803C33.7694 39.578 33.8442 39.3355 33.8886 39.0528ZM39.7334 37.5272V38.1798H36.4577V37.5272H39.7334ZM36.5824 34.9248V40.9775H35.7801V34.9248H36.5824ZM40.4318 34.9248V40.9775H39.6337V34.9248H40.4318ZM44.1732 35.4611L42.1695 40.9775H41.3505L43.6577 34.9248H44.1857L44.1732 35.4611ZM45.8527 40.9775L43.8448 35.4611L43.8323 34.9248H44.3603L46.6758 40.9775H45.8527ZM45.7487 38.7369V39.3937H42.3482V38.7369H45.7487Z" fill="#555555"/>
<path d="M4.89625 48.893H3.72095V48.4186H4.89625C5.12386 48.4186 5.30816 48.3824 5.44916 48.3099C5.59016 48.2373 5.69288 48.1366 5.75734 48.0077C5.82381 47.8788 5.85704 47.7318 5.85704 47.5666C5.85704 47.4155 5.82381 47.2735 5.75734 47.1406C5.69288 47.0076 5.59016 46.9009 5.44916 46.8203C5.30816 46.7377 5.12386 46.6965 4.89625 46.6965H3.85691V50.6182H3.27379V46.2191H4.89625C5.2286 46.2191 5.50959 46.2765 5.73921 46.3913C5.96883 46.5061 6.14306 46.6652 6.2619 46.8687C6.38074 47.0701 6.44016 47.3007 6.44016 47.5606C6.44016 47.8425 6.38074 48.0833 6.2619 48.2827C6.14306 48.4821 5.96883 48.6341 5.73921 48.7389C5.50959 48.8416 5.2286 48.893 4.89625 48.893ZM7.65173 47.8627V50.6182H7.09278V47.3491H7.63662L7.65173 47.8627ZM8.67294 47.3309L8.66992 47.8506C8.62359 47.8405 8.57928 47.8345 8.53698 47.8325C8.4967 47.8284 8.45037 47.8264 8.398 47.8264C8.26909 47.8264 8.15528 47.8466 8.05659 47.8869C7.95789 47.9271 7.8743 47.9835 7.80581 48.0561C7.73733 48.1286 7.68295 48.2152 7.64266 48.3159C7.60439 48.4146 7.57921 48.5234 7.56713 48.6422L7.41002 48.7328C7.41002 48.5354 7.42915 48.3501 7.46742 48.1769C7.50771 48.0037 7.56914 47.8506 7.65173 47.7177C7.73431 47.5827 7.83905 47.478 7.96595 47.4034C8.09486 47.3269 8.24794 47.2886 8.42519 47.2886C8.46548 47.2886 8.5118 47.2937 8.56417 47.3037C8.61654 47.3118 8.6528 47.3209 8.67294 47.3309ZM9.79689 47.3491V50.6182H9.23491V47.3491H9.79689ZM9.19262 46.4819C9.19262 46.3913 9.21981 46.3148 9.27419 46.2523C9.33059 46.1899 9.41317 46.1586 9.52194 46.1586C9.6287 46.1586 9.71027 46.1899 9.76667 46.2523C9.82508 46.3148 9.85429 46.3913 9.85429 46.4819C9.85429 46.5685 9.82508 46.6431 9.76667 46.7055C9.71027 46.7659 9.6287 46.7962 9.52194 46.7962C9.41317 46.7962 9.33059 46.7659 9.27419 46.7055C9.21981 46.6431 9.19262 46.5685 9.19262 46.4819ZM11.6883 50.1136L12.5826 47.3491H13.1536L11.9783 50.6182H11.6037L11.6883 50.1136ZM10.942 47.3491L11.8635 50.1287L11.9269 50.6182H11.5523L10.3679 47.3491H10.942ZM15.5707 50.0592V48.3763C15.5707 48.2474 15.5445 48.1356 15.4921 48.041C15.4418 47.9443 15.3652 47.8697 15.2625 47.8174C15.1598 47.765 15.0329 47.7388 14.8818 47.7388C14.7408 47.7388 14.6169 47.763 14.5102 47.8113C14.4055 47.8597 14.3229 47.9231 14.2624 48.0017C14.204 48.0802 14.1748 48.1648 14.1748 48.2555H13.6159C13.6159 48.1386 13.6461 48.0228 13.7065 47.908C13.7669 47.7932 13.8536 47.6895 13.9663 47.5968C14.0812 47.5021 14.2181 47.4276 14.3773 47.3732C14.5384 47.3168 14.7177 47.2886 14.9151 47.2886C15.1527 47.2886 15.3622 47.3289 15.5435 47.4095C15.7268 47.4901 15.8698 47.6119 15.9725 47.7751C16.0773 47.9362 16.1296 48.1386 16.1296 48.3824V49.9051C16.1296 50.0139 16.1387 50.1297 16.1568 50.2526C16.177 50.3754 16.2062 50.4812 16.2444 50.5698V50.6182H15.6613C15.6331 50.5537 15.611 50.4681 15.5949 50.3613C15.5787 50.2526 15.5707 50.1519 15.5707 50.0592ZM15.6674 48.6362L15.6734 49.0289H15.1084C14.9493 49.0289 14.8073 49.042 14.6824 49.0682C14.5575 49.0924 14.4528 49.1296 14.3682 49.18C14.2836 49.2304 14.2191 49.2938 14.1748 49.3703C14.1305 49.4449 14.1084 49.5325 14.1084 49.6332C14.1084 49.7359 14.1315 49.8296 14.1778 49.9142C14.2242 49.9988 14.2937 50.0663 14.3863 50.1166C14.481 50.165 14.5968 50.1891 14.7338 50.1891C14.905 50.1891 15.0561 50.1529 15.187 50.0804C15.3179 50.0079 15.4216 49.9192 15.4982 49.8145C15.5767 49.7097 15.619 49.608 15.6251 49.5093L15.8638 49.7782C15.8497 49.8628 15.8114 49.9565 15.7489 50.0592C15.6865 50.1619 15.6029 50.2606 15.4982 50.3553C15.3954 50.448 15.2726 50.5255 15.1296 50.588C14.9886 50.6484 14.8294 50.6786 14.6522 50.6786C14.4306 50.6786 14.2363 50.6353 14.0691 50.5487C13.9039 50.4621 13.775 50.3462 13.6823 50.2012C13.5917 50.0542 13.5464 49.89 13.5464 49.7087C13.5464 49.5335 13.5806 49.3794 13.6491 49.2465C13.7176 49.1115 13.8163 48.9997 13.9452 48.9111C14.0741 48.8205 14.2292 48.752 14.4105 48.7056C14.5918 48.6593 14.7942 48.6362 15.0178 48.6362H15.6674ZM18.3171 50.2193C18.45 50.2193 18.5729 50.1922 18.6857 50.1378C18.7985 50.0834 18.8912 50.0089 18.9637 49.9142C19.0362 49.8175 19.0775 49.7077 19.0875 49.5849H19.6193C19.6092 49.7782 19.5438 49.9585 19.4229 50.1257C19.3041 50.2909 19.148 50.4248 18.9546 50.5275C18.7612 50.6282 18.5487 50.6786 18.3171 50.6786C18.0714 50.6786 17.8568 50.6353 17.6735 50.5487C17.4923 50.4621 17.3412 50.3432 17.2203 50.1922C17.1015 50.0411 17.0119 49.8679 16.9514 49.6725C16.893 49.4751 16.8638 49.2666 16.8638 49.0471V48.9202C16.8638 48.7006 16.893 48.4931 16.9514 48.2978C17.0119 48.1004 17.1015 47.9261 17.2203 47.7751C17.3412 47.624 17.4923 47.5052 17.6735 47.4186C17.8568 47.3319 18.0714 47.2886 18.3171 47.2886C18.5729 47.2886 18.7965 47.341 18.9878 47.4457C19.1792 47.5485 19.3292 47.6895 19.438 47.8687C19.5488 48.046 19.6092 48.2474 19.6193 48.473H19.0875C19.0775 48.3381 19.0392 48.2162 18.9727 48.1074C18.9083 47.9987 18.8196 47.912 18.7068 47.8476C18.5961 47.7811 18.4661 47.7479 18.3171 47.7479C18.1459 47.7479 18.0019 47.7821 17.885 47.8506C17.7702 47.9171 17.6786 48.0077 17.6101 48.1225C17.5436 48.2353 17.4953 48.3612 17.4651 48.5002C17.4369 48.6372 17.4228 48.7772 17.4228 48.9202V49.0471C17.4228 49.1901 17.4369 49.3311 17.4651 49.4701C17.4933 49.609 17.5406 49.7349 17.6071 49.8477C17.6756 49.9605 17.7672 50.0512 17.882 50.1196C17.9988 50.1861 18.1439 50.2193 18.3171 50.2193ZM21.1662 50.2798L22.0757 47.3491H22.6739L21.3626 51.1227C21.3324 51.2033 21.2921 51.2899 21.2418 51.3826C21.1934 51.4772 21.131 51.5669 21.0544 51.6515C20.9779 51.7361 20.8852 51.8045 20.7765 51.8569C20.6697 51.9113 20.5418 51.9385 20.3928 51.9385C20.3484 51.9385 20.2921 51.9325 20.2236 51.9204C20.1551 51.9083 20.1067 51.8982 20.0785 51.8902L20.0755 51.437C20.0916 51.439 20.1168 51.441 20.1511 51.443C20.1873 51.447 20.2125 51.449 20.2266 51.449C20.3535 51.449 20.4612 51.4319 20.5499 51.3977C20.6385 51.3654 20.713 51.3101 20.7735 51.2315C20.8359 51.155 20.8893 51.0492 20.9336 50.9143L21.1662 50.2798ZM20.4985 47.3491L21.3475 49.887L21.4925 50.4762L21.0907 50.6816L19.8882 47.3491H20.4985ZM25.8765 48.5183V48.9776H24.4021V48.5183H25.8765ZM29.5475 46.2191V50.6182H28.9734V46.2191H29.5475ZM30.9614 46.2191V46.6965H27.5624V46.2191H30.9614ZM32.5839 50.6786C32.3563 50.6786 32.1498 50.6403 31.9645 50.5638C31.7812 50.4852 31.6231 50.3754 31.4902 50.2345C31.3593 50.0935 31.2585 49.9263 31.1881 49.7329C31.1176 49.5395 31.0823 49.328 31.0823 49.0984V48.9715C31.0823 48.7056 31.1216 48.469 31.2001 48.2615C31.2787 48.052 31.3854 47.8748 31.5204 47.7298C31.6554 47.5847 31.8084 47.475 31.9796 47.4004C32.1509 47.3259 32.3281 47.2886 32.5114 47.2886C32.7451 47.2886 32.9465 47.3289 33.1157 47.4095C33.2869 47.4901 33.4269 47.6029 33.5356 47.7479C33.6444 47.8909 33.725 48.0601 33.7773 48.2555C33.8297 48.4488 33.8559 48.6603 33.8559 48.89V49.1407H31.4147V48.6845H33.297V48.6422C33.2889 48.4972 33.2587 48.3562 33.2063 48.2192C33.156 48.0822 33.0754 47.9694 32.9646 47.8808C32.8538 47.7922 32.7028 47.7479 32.5114 47.7479C32.3845 47.7479 32.2677 47.7751 32.1609 47.8295C32.0542 47.8818 31.9625 47.9604 31.886 48.0651C31.8094 48.1699 31.75 48.2978 31.7077 48.4488C31.6654 48.5999 31.6443 48.7741 31.6443 48.9715V49.0984C31.6443 49.2535 31.6654 49.3996 31.7077 49.5365C31.752 49.6715 31.8155 49.7903 31.8981 49.893C31.9827 49.9958 32.0844 50.0763 32.2032 50.1347C32.3241 50.1932 32.461 50.2224 32.6141 50.2224C32.8115 50.2224 32.9787 50.1821 33.1157 50.1015C33.2526 50.0209 33.3725 49.9132 33.4752 49.7782L33.8136 50.0471C33.7431 50.1539 33.6535 50.2556 33.5447 50.3523C33.4359 50.449 33.302 50.5275 33.1429 50.588C32.9858 50.6484 32.7994 50.6786 32.5839 50.6786ZM35.0675 47.8627V50.6182H34.5085V47.3491H35.0524L35.0675 47.8627ZM36.0887 47.3309L36.0857 47.8506C36.0393 47.8405 35.995 47.8345 35.9527 47.8325C35.9124 47.8284 35.8661 47.8264 35.8137 47.8264C35.6848 47.8264 35.571 47.8466 35.4723 47.8869C35.3736 47.9271 35.29 47.9835 35.2216 48.0561C35.1531 48.1286 35.0987 48.2152 35.0584 48.3159C35.0201 48.4146 34.995 48.5234 34.9829 48.6422L34.8258 48.7328C34.8258 48.5354 34.8449 48.3501 34.8832 48.1769C34.9234 48.0037 34.9849 47.8506 35.0675 47.7177C35.15 47.5827 35.2548 47.478 35.3817 47.4034C35.5106 47.3269 35.6637 47.2886 35.8409 47.2886C35.8812 47.2886 35.9275 47.2937 35.9799 47.3037C36.0323 47.3118 36.0685 47.3209 36.0887 47.3309ZM37.1613 47.9987V50.6182H36.5993V47.3491H37.131L37.1613 47.9987ZM37.0464 48.8597L36.7866 48.8507C36.7886 48.6271 36.8178 48.4206 36.8742 48.2313C36.9306 48.0399 37.0142 47.8738 37.125 47.7328C37.2358 47.5918 37.3738 47.483 37.5389 47.4065C37.7041 47.3279 37.8954 47.2886 38.113 47.2886C38.2661 47.2886 38.4071 47.3108 38.536 47.3551C38.6649 47.3974 38.7767 47.4649 38.8713 47.5575C38.966 47.6502 39.0395 47.769 39.0919 47.9141C39.1443 48.0591 39.1705 48.2343 39.1705 48.4398V50.6182H38.6115V48.467C38.6115 48.2958 38.5823 48.1588 38.5239 48.0561C38.4675 47.9533 38.3869 47.8788 38.2822 47.8325C38.1774 47.7841 38.0546 47.76 37.9136 47.76C37.7484 47.76 37.6104 47.7892 37.4997 47.8476C37.3889 47.906 37.3002 47.9866 37.2338 48.0893C37.1673 48.192 37.119 48.3099 37.0887 48.4428C37.0605 48.5737 37.0464 48.7127 37.0464 48.8597ZM39.1644 48.5516L38.7898 48.6664C38.7918 48.4871 38.821 48.3149 38.8774 48.1497C38.9358 47.9846 39.0194 47.8375 39.1282 47.7086C39.2389 47.5797 39.3749 47.478 39.536 47.4034C39.6972 47.3269 39.8815 47.2886 40.0889 47.2886C40.2642 47.2886 40.4193 47.3118 40.5542 47.3581C40.6912 47.4045 40.806 47.476 40.8987 47.5726C40.9933 47.6673 41.0648 47.7892 41.1132 47.9382C41.1615 48.0873 41.1857 48.2645 41.1857 48.47V50.6182H40.6237V48.4639C40.6237 48.2806 40.5945 48.1386 40.5361 48.0379C40.4797 47.9352 40.3991 47.8637 40.2944 47.8234C40.1917 47.7811 40.0688 47.76 39.9258 47.76C39.8029 47.76 39.6942 47.7811 39.5995 47.8234C39.5048 47.8657 39.4253 47.9241 39.3608 47.9987C39.2963 48.0712 39.247 48.1548 39.2128 48.2494C39.1805 48.3441 39.1644 48.4448 39.1644 48.5516ZM43.9351 49.751C43.9351 49.6705 43.917 49.5959 43.8807 49.5275C43.8465 49.457 43.775 49.3935 43.6662 49.3371C43.5595 49.2787 43.3983 49.2283 43.1828 49.186C43.0015 49.1478 42.8374 49.1025 42.6903 49.0501C42.5453 48.9977 42.4214 48.9343 42.3187 48.8597C42.218 48.7852 42.1405 48.6976 42.0861 48.5969C42.0317 48.4962 42.0045 48.3783 42.0045 48.2434C42.0045 48.1145 42.0327 47.9926 42.0891 47.8778C42.1475 47.763 42.2291 47.6613 42.3338 47.5726C42.4406 47.484 42.5685 47.4145 42.7175 47.3642C42.8666 47.3138 43.0328 47.2886 43.2161 47.2886C43.4779 47.2886 43.7015 47.335 43.8868 47.4276C44.0721 47.5203 44.2141 47.6441 44.3128 47.7992C44.4115 47.9523 44.4608 48.1225 44.4608 48.3099H43.9019C43.9019 48.2192 43.8747 48.1316 43.8203 48.047C43.768 47.9604 43.6904 47.8889 43.5877 47.8325C43.487 47.7761 43.3631 47.7479 43.2161 47.7479C43.061 47.7479 42.9351 47.7721 42.8384 47.8204C42.7437 47.8667 42.6742 47.9261 42.6299 47.9987C42.5876 48.0712 42.5665 48.1477 42.5665 48.2283C42.5665 48.2887 42.5765 48.3431 42.5967 48.3914C42.6188 48.4378 42.6571 48.4811 42.7115 48.5213C42.7659 48.5596 42.8424 48.5959 42.9411 48.6301C43.0398 48.6644 43.1657 48.6986 43.3188 48.7328C43.5867 48.7933 43.8072 48.8658 43.9805 48.9504C44.1537 49.035 44.2826 49.1387 44.3672 49.2616C44.4518 49.3844 44.4941 49.5335 44.4941 49.7087C44.4941 49.8517 44.4639 49.9827 44.4034 50.1015C44.345 50.2204 44.2594 50.3231 44.1466 50.4097C44.0358 50.4943 43.9029 50.5608 43.7478 50.6091C43.5947 50.6554 43.4225 50.6786 43.2312 50.6786C42.9431 50.6786 42.6994 50.6272 42.5 50.5245C42.3006 50.4218 42.1495 50.2888 42.0468 50.1257C41.9441 49.9625 41.8927 49.7903 41.8927 49.609H42.4547C42.4627 49.7621 42.507 49.884 42.5876 49.9746C42.6682 50.0632 42.7669 50.1267 42.8837 50.165C43.0005 50.2012 43.1163 50.2193 43.2312 50.2193C43.3842 50.2193 43.5121 50.1992 43.6149 50.1589C43.7196 50.1186 43.7992 50.0632 43.8536 49.9927C43.9079 49.9222 43.9351 49.8417 43.9351 49.751Z" fill="#555555"/>
<defs>
<filter id="filter0_d_5556_6808" x="8.94433" y="-2.26075" width="18.4483" height="27.3736" filterUnits="userSpaceOnUse" color-interpolation-filters="sRGB">
<feFlood flood-opacity="0" result="BackgroundImageFix"/>
<feColorMatrix in="SourceAlpha" type="matrix" values="0 0 0 0 0 0 0 0 0 0 0 0 0 0 0 0 0 0 127 0" result="hardAlpha"/>
<feOffset/>
<feGaussianBlur stdDeviation="1.82935"/>
<feColorMatrix type="matrix" values="0 0 0 0 0 0 0 0 0 0 0 0 0 0 0 0 0 0 0.24 0"/>
<feBlend mode="normal" in2="BackgroundImageFix" result="effect1_dropShadow_5556_6808"/>
<feBlend mode="normal" in="SourceGraphic" in2="effect1_dropShadow_5556_6808" result="shape"/>
</filter>
<filter id="filter1_d_5556_6808" x="8.94482" y="8.96679" width="27.3736" height="18.4483" filterUnits="userSpaceOnUse" color-interpolation-filters="sRGB">
<feFlood flood-opacity="0" result="BackgroundImageFix"/>
<feColorMatrix in="SourceAlpha" type="matrix" values="0 0 0 0 0 0 0 0 0 0 0 0 0 0 0 0 0 0 127 0" result="hardAlpha"/>
<feOffset/>
<feGaussianBlur stdDeviation="1.82935"/>
<feColorMatrix type="matrix" values="0 0 0 0 0 0 0 0 0 0 0 0 0 0 0 0 0 0 0.24 0"/>
<feBlend mode="normal" in2="BackgroundImageFix" result="effect1_dropShadow_5556_6808"/>
<feBlend mode="normal" in="SourceGraphic" in2="effect1_dropShadow_5556_6808" result="shape"/>
</filter>
</defs>
</svg>
