<svg width="24" height="24" viewBox="0 0 24 24" fill="none" xmlns="http://www.w3.org/2000/svg">
<path d="M11.75 15.0002L8.75 12.0002M11.75 15.0002C13.1468 14.469 14.4869 13.799 15.75 13.0002M11.75 15.0002V20.0002C11.75 20.0002 14.78 19.4502 15.75 18.0002C16.83 16.3802 15.75 13.0002 15.75 13.0002M8.75 12.0002C9.28214 10.6197 9.9522 9.29631 10.75 8.05025C11.9152 6.18723 13.5376 4.6533 15.463 3.59434C17.3884 2.53538 19.5527 1.98662 21.75 2.00025C21.75 4.72025 20.97 9.50025 15.75 13.0002M8.75 12.0002H3.75C3.75 12.0002 4.3 8.97025 5.75 8.00025C7.37 6.92025 10.75 8.00025 10.75 8.00025M4.25 16.5002C2.75 17.7602 2.25 21.5002 2.25 21.5002C2.25 21.5002 5.99 21.0002 7.25 19.5002C7.96 18.6602 7.95 17.3702 7.16 16.5902C6.77131 16.2193 6.25929 16.0049 5.72223 15.9883C5.18516 15.9717 4.66088 16.154 4.25 16.5002Z" stroke="#F26426" stroke-width="2" stroke-linecap="round" stroke-linejoin="round"/>
</svg>
