<svg width="25" height="24" viewBox="0 0 25 24" fill="none" xmlns="http://www.w3.org/2000/svg">
<g clip-path="url(#clip0_5238_2025)">
<path d="M21.8333 3.3335H3.16667C2.45942 3.3335 1.78115 3.61445 1.28105 4.11454C0.780952 4.61464 0.5 5.29292 0.5 6.00016L0.5 18.0002C0.5 18.7074 0.780952 19.3857 1.28105 19.8858C1.78115 20.3859 2.45942 20.6668 3.16667 20.6668H21.8333C22.5406 20.6668 23.2189 20.3859 23.719 19.8858C24.219 19.3857 24.5 18.7074 24.5 18.0002V6.00016C24.5 5.29292 24.219 4.61464 23.719 4.11454C23.2189 3.61445 22.5406 3.3335 21.8333 3.3335Z" fill="#006C35"/>
<path d="M6.44583 9.36664C6.86716 9.40664 6.63449 8.65397 6.78716 8.5173C6.81583 8.44997 6.86916 8.4493 6.87316 8.53464V9.1733C6.86916 9.3813 7.00583 9.44197 7.11183 9.4853C7.2225 9.47663 7.29583 9.48064 7.33916 9.58797L7.39116 10.6933C7.39116 10.6933 7.64716 10.7666 7.65916 10.0713C7.67183 9.6633 7.57783 9.32197 7.63316 9.24264C7.63516 9.16464 7.7345 9.15997 7.80383 9.19797C7.91383 9.2753 7.96316 9.3713 8.13383 9.3333C8.3945 9.26197 8.5505 9.1353 8.5545 8.9353C8.53916 8.7453 8.51783 8.5553 8.43583 8.3653C8.44716 8.33064 8.38583 8.2413 8.39716 8.20664C8.44383 8.27997 8.51516 8.27397 8.53116 8.20664C8.48716 8.06064 8.4185 7.92064 8.3065 7.85997C8.2145 7.77864 8.07983 7.7953 8.03049 7.96463C8.00783 8.1593 8.10116 8.3913 8.2425 8.57997C8.2725 8.65397 8.31516 8.77664 8.29649 8.8873C8.22116 8.92997 8.14516 8.91264 8.08249 8.84597C8.08249 8.84597 7.87516 8.69064 7.87516 8.65597C7.9305 8.30397 7.88783 8.26397 7.85716 8.16664C7.83583 8.03197 7.77183 7.98864 7.71983 7.89664C7.66783 7.84197 7.59783 7.84197 7.5645 7.89664C7.4725 8.0553 7.51516 8.39664 7.58183 8.5493C7.62916 8.6893 7.7025 8.77797 7.66783 8.77797C7.63916 8.8573 7.5805 8.83864 7.53783 8.7473C7.4765 8.55797 7.46449 8.27597 7.46449 8.14863C7.44583 7.9913 7.42583 7.65464 7.3225 7.5693C7.25916 7.4833 7.16516 7.52464 7.1325 7.60397C7.12583 7.75997 7.12449 7.91664 7.14249 8.0613C7.21316 8.31397 7.23583 8.53664 7.2705 8.79597C7.27983 9.1433 7.06983 8.94663 7.07916 8.77463C7.12783 8.5513 7.11516 8.1993 7.07183 8.10997C7.03783 8.0213 6.99716 7.99864 6.91449 8.0133C6.84916 8.00797 6.67983 8.1933 6.63183 8.49997C6.63183 8.49997 6.59116 8.65797 6.57383 8.79864C6.5505 8.9573 6.4465 9.0693 6.37316 8.77664C6.30983 8.56397 6.27116 8.0393 6.16516 8.16197C6.1345 8.57197 6.09783 9.2933 6.44583 9.36664Z" fill="white"/>
<path d="M7.07991 9.66602C6.73325 9.67268 6.22591 10.1213 6.21191 10.37C6.57725 10.194 6.93658 10.0247 7.30858 9.84335C7.24858 9.75335 7.30525 9.67268 7.07991 9.66602Z" fill="white"/>
<path d="M8.99145 11.0107C9.15212 10.4754 8.96545 10.0807 9.05278 10.0827C9.23745 10.282 9.49612 10.1094 9.55278 10.04C9.57745 10.0054 9.63812 9.98271 9.68078 10.028C9.82545 10.132 10.0801 10.0827 10.1328 9.90004C10.1661 9.71659 10.1866 9.53102 10.1941 9.34471C10.0761 9.38137 9.98812 9.40604 9.98012 9.45471L9.95545 9.61337C9.94545 9.66471 9.84345 9.66671 9.83945 9.60137C9.79478 9.39804 9.60945 9.37137 9.49745 9.68671C9.42212 9.74804 9.28612 9.76004 9.27145 9.66871C9.28945 9.45737 9.20412 9.42871 9.03345 9.52804C8.97878 9.10871 8.92345 8.70804 8.86878 8.28871C8.94012 8.28671 9.00545 8.33937 9.07012 8.25804C8.99878 8.03604 8.84812 7.58271 8.76478 7.55004C8.72412 7.50071 8.68945 7.53137 8.63678 7.54404C8.54745 7.57271 8.46412 7.65004 8.49012 7.80004C8.59612 8.44337 8.66545 8.93337 8.77078 9.57671C8.78678 9.65204 8.72412 9.75137 8.64278 9.74137C8.50478 9.64804 8.47012 9.45871 8.23412 9.46671C8.06278 9.46871 7.86745 9.65404 7.84345 9.83337C7.81478 9.97537 7.80478 10.13 7.84345 10.2547C7.96345 10.3987 8.10812 10.3847 8.23412 10.352C8.33745 10.3094 8.42345 10.2054 8.45945 10.23C8.48412 10.26 8.46545 10.602 7.97145 10.8647C7.67212 10.9987 7.43412 11.0294 7.30612 10.7854C7.22678 10.6327 7.31212 10.0527 7.11678 10.1874C6.53878 11.6774 8.47012 11.884 8.68612 10.2487C8.70678 10.1814 8.78812 10.114 8.80212 10.224C8.75745 11.7054 7.30812 11.8074 7.06212 11.3414C7.00078 11.2314 6.98278 10.9874 6.97678 10.8407C6.94012 10.5494 6.78745 10.6614 6.76345 10.95C6.73878 11.1107 6.74545 11.156 6.74545 11.31C6.82212 12.48 8.68878 11.9774 8.99145 11.0107ZM8.27145 9.99871C8.25945 10.0214 8.20678 10.012 8.16812 10.012C8.12412 10.01 8.10345 10.0027 8.07678 9.96737C8.06478 9.92737 8.10212 9.88937 8.11878 9.85937C8.13945 9.82404 8.25078 9.78737 8.29012 9.88604C8.29726 9.90479 8.29929 9.9251 8.29601 9.9449C8.29273 9.96469 8.28426 9.98326 8.27145 9.99871Z" fill="white"/>
<path d="M9.56799 8.67291C9.68399 8.63025 10.234 8.00158 10.234 8.00158C10.2053 7.97691 10.18 7.95891 10.1513 7.93425C10.1207 7.90758 10.124 7.88091 10.1513 7.85491C10.2873 7.77558 10.244 7.60158 10.1727 7.52225C10.1264 7.49986 10.0757 7.48846 10.0243 7.48892C9.973 7.48938 9.92246 7.5017 9.87666 7.52491C9.78132 7.61625 9.75866 7.76291 9.83399 7.85491C9.90732 7.88958 9.98066 7.96358 9.93199 8.00425C9.70732 8.24425 9.09132 8.65825 9.16266 8.67291C9.17799 8.69291 9.55599 8.69225 9.56799 8.67291ZM9.97532 7.68558C10.0107 7.67691 10.056 7.70825 10.0773 7.75491C10.0987 7.80158 10.0873 7.84625 10.0527 7.85491H10.0513C10.0167 7.86358 9.97132 7.83225 9.94999 7.78558C9.92932 7.73825 9.94066 7.69425 9.97532 7.68558ZM6.40799 11.5056C6.31732 11.6902 6.27932 11.5636 6.27132 11.4602C6.26116 11.2867 6.26988 11.1126 6.29732 10.9409C6.31999 10.7942 6.29732 10.8389 6.25066 10.8982C6.04466 11.2262 6.02666 11.7169 6.14066 11.8629C6.20066 11.9322 6.29999 11.9629 6.37399 11.9402C6.50332 11.8842 6.55999 11.6216 6.52932 11.5262C6.48532 11.4589 6.45132 11.4482 6.40799 11.5056ZM13.1953 8.03358C13.4327 8.35225 13.658 8.67691 13.8787 9.00758C13.9222 9.29336 13.9533 9.57491 13.972 9.85225C14.0087 10.3882 14.0193 10.9682 13.986 11.5329C14.086 11.5369 14.248 11.3702 14.304 11.1269C14.3407 10.7902 14.2907 10.1909 14.2873 9.99225C14.2829 9.86773 14.2769 9.74328 14.2693 9.61891C14.532 10.0482 14.788 10.4976 15.038 10.9969C15.1293 10.9542 15.1093 10.4436 15.056 10.3716C14.856 9.94291 14.5807 9.51891 14.4927 9.35625C14.46 9.29625 14.3487 9.12558 14.216 8.93025C14.2042 8.77439 14.1855 8.61913 14.16 8.46491C14.1187 8.17958 14.278 8.49625 14.256 8.33025C14.2047 8.04491 14.046 7.85225 13.8607 7.59091C13.8007 7.50625 13.8027 7.48891 13.71 7.61158C13.6779 7.68527 13.6628 7.76526 13.666 7.84558C13.6367 7.80329 13.6058 7.76215 13.5733 7.72225L13.27 7.46358C13.2027 7.41558 13.0387 7.32891 13.0093 7.47291C12.9964 7.57388 13.0014 7.67633 13.024 7.77558C13.0413 7.84691 13.1447 7.96558 13.1953 8.03358ZM13.6887 8.01758C13.7013 8.07291 13.7147 8.12825 13.7233 8.18491L13.7333 8.23891C13.7053 8.19991 13.6761 8.16167 13.646 8.12425C13.5367 7.99491 13.6273 8.02291 13.6887 8.01758Z" fill="white"/>
<path d="M15.1128 11.1285C14.8808 11.3705 14.5461 11.6685 14.1821 11.8065C14.1428 11.8505 14.2794 12.0392 14.4554 12.0392C14.7508 12.0045 15.0108 11.8385 15.2514 11.4019C15.3161 11.3005 15.4294 11.0825 15.4321 10.9132C15.4541 9.92255 15.3828 9.15121 15.2341 8.43521C15.2241 8.37776 15.2269 8.31883 15.2421 8.26255C15.2608 8.23988 15.3261 8.26255 15.3608 8.20655C15.4108 8.15455 15.2268 7.72788 15.1214 7.56388C15.0841 7.49055 15.0714 7.44121 15.0094 7.57255C14.9441 7.67921 14.9008 7.86521 14.9061 8.03855C15.0468 9.01388 15.0901 9.86788 15.1821 10.8432C15.1894 10.9372 15.1754 11.0745 15.1128 11.1285ZM18.9994 8.65521C18.9894 8.58588 18.9588 8.42455 18.9708 8.40388C18.9894 8.35455 19.0861 8.40921 19.1208 8.35255C19.1714 8.30121 18.8714 7.91588 18.7668 7.75188C18.7288 7.67855 18.7161 7.62921 18.6541 7.76055C18.5888 7.86721 18.5661 8.05855 18.5921 8.22655C18.7488 9.28588 18.8654 10.0819 18.8894 11.0212C18.8754 11.1105 18.8728 11.1585 18.8308 11.2705C18.7381 11.3892 18.6361 11.5372 18.5394 11.6092C18.4434 11.6805 18.2388 11.7492 18.1714 11.8019C17.9601 11.9252 17.9594 12.0659 18.1314 12.0705C18.4261 12.0359 18.7754 12.0119 19.0161 11.6479C19.0808 11.5465 19.1574 11.2712 19.1608 11.1019C19.1828 10.1112 19.1481 9.37121 18.9994 8.65521ZM16.7654 9.47988C16.7681 9.34388 16.7808 9.16388 16.7881 9.05121C16.7914 9.00921 16.8014 8.96188 16.8414 8.95121C16.8821 8.94055 16.9541 8.99255 16.9548 8.94855C16.9468 8.86255 16.9294 8.73454 16.8808 8.67388C16.8141 8.57521 16.6374 8.59921 16.6061 8.75388C16.6068 8.81121 16.6328 8.84188 16.6281 8.89388C16.6201 8.92321 16.5894 8.94321 16.5168 8.90855C16.5288 8.89788 16.4694 8.81588 16.4694 8.81588C16.4128 8.78121 16.3368 8.81788 16.2881 8.84921C16.2707 8.88289 16.2603 8.91975 16.2575 8.95757C16.2548 8.99539 16.2597 9.03337 16.2721 9.06921C16.3521 9.22055 16.6314 9.47721 16.7654 9.47988Z" fill="white"/>
<path d="M16.6711 8.32053L17.2665 9.0492C17.3098 9.59986 17.3211 10.0505 17.3638 10.6012C17.3578 10.8345 17.2858 11.0379 17.2171 11.0672C17.2171 11.0672 17.1138 11.1272 17.0445 11.0612C16.9938 11.0405 16.7918 10.7245 16.7918 10.7245C16.6885 10.6299 16.6205 10.6565 16.5471 10.7245C16.3445 10.9199 16.2531 11.2865 16.1158 11.5385C16.0798 11.5952 15.9798 11.6432 15.8685 11.5345C15.5865 11.1485 15.7518 10.5999 15.7171 10.7412C15.4658 11.0245 15.5765 11.4932 15.6331 11.5945C15.7158 11.7599 15.7831 11.8665 15.9445 11.9485C16.0911 12.0565 16.2058 11.9885 16.2685 11.9132C16.4165 11.7592 16.4185 11.3692 16.4878 11.2905C16.5358 11.1485 16.6591 11.1725 16.7185 11.2359C16.7732 11.3121 16.8452 11.3745 16.9285 11.4179C17.0665 11.5399 17.2311 11.5619 17.3931 11.4505C17.5038 11.3885 17.5765 11.3079 17.6411 11.1485C17.7131 10.9565 17.6738 10.0739 17.6591 9.54453C17.7625 9.67786 17.8631 9.8172 17.9651 9.95653C18.0098 10.3985 18.0351 10.8385 18.0205 11.2879C18.0098 11.3779 18.3338 11.0212 18.3311 10.8519V10.4745C18.4871 10.7092 18.6391 10.9512 18.7818 11.2072C18.8711 11.1605 18.8418 10.6572 18.7851 10.5879C18.6205 10.3119 18.4011 10.0245 18.2498 9.8192C18.2398 9.7932 18.2345 9.76386 18.2225 9.7392C18.1618 9.59853 18.1998 9.4852 18.1711 9.33586C18.1431 9.18586 18.1505 8.96186 18.1071 8.78386C18.0951 8.71453 18.0591 8.49186 18.0698 8.4712C18.0871 8.4212 18.1538 8.47253 18.1865 8.4152C18.2351 8.36186 18.0178 7.79853 17.9071 7.6372C17.8671 7.5652 17.7951 7.58986 17.7058 7.7072C17.6238 7.78453 17.6545 7.96053 17.6858 8.12786C17.7638 8.5332 17.8291 8.92186 17.8851 9.30653C17.7652 9.14715 17.6441 8.9887 17.5218 8.8312L17.5165 8.80186C17.5165 8.79453 17.4985 8.45253 17.4825 8.3712C17.4798 8.33853 17.4718 8.32853 17.5065 8.33253C17.5431 8.3632 17.5478 8.3652 17.5711 8.37586C17.6085 8.38253 17.6411 8.3192 17.6191 8.2612L17.2745 7.62653C17.2471 7.5992 17.2111 7.56986 17.1678 7.63386C17.1407 7.65725 17.1191 7.68623 17.1044 7.71881C17.0896 7.75139 17.0822 7.78678 17.0825 7.82253C17.0931 7.97253 17.1191 8.12586 17.1291 8.27653L17.1438 8.35786C17.1285 8.33986 17.1098 8.3172 17.1018 8.3092C16.8091 8.0012 17.2365 8.2592 17.0458 8.0212C16.8845 7.84386 16.8378 7.78853 16.6991 7.68186C16.6298 7.6372 16.5878 7.55186 16.5651 7.6972C16.5544 7.82468 16.5511 7.95267 16.5551 8.08053C16.5551 8.14186 16.6171 8.25386 16.6711 8.32053ZM10.7371 9.03986C10.9051 9.1092 11.0125 8.7892 11.0818 8.43853C11.1285 8.33986 11.1645 8.3292 11.1885 8.37986C11.1825 8.84653 11.2218 8.94986 11.3418 9.09186C11.6091 9.29853 11.8305 9.11786 11.8485 9.10053L12.0565 8.89253C12.1025 8.84386 12.1645 8.84053 12.2298 8.88386C12.2938 8.9412 12.2851 9.0412 12.4211 9.11053C12.5358 9.15653 12.7811 9.1212 12.8378 9.02253C12.9145 8.89186 12.9331 8.84653 12.9678 8.7972C13.0225 8.72453 13.1158 8.7572 13.1158 8.77986C13.1071 8.82053 13.0525 8.8612 13.0898 8.93386C13.1551 8.98253 13.1698 8.9512 13.2085 8.94053C13.3445 8.8752 13.4458 8.58053 13.4458 8.58053C13.4518 8.47053 13.3905 8.47986 13.3505 8.50253C13.2985 8.53386 13.2951 8.54453 13.2431 8.57653C13.1765 8.58653 13.0478 8.63053 12.9845 8.53186C12.9191 8.4132 12.9178 8.24786 12.8685 8.12853C12.8685 8.11986 12.7818 7.93986 12.8625 7.92853C12.9031 7.93586 12.9891 7.95853 13.0031 7.88653C13.0451 7.81586 12.9118 7.61453 12.8211 7.51253C12.7418 7.42586 12.6318 7.4152 12.5258 7.50386C12.4511 7.57253 12.4618 7.64853 12.4471 7.7212C12.4346 7.77245 12.4344 7.82595 12.4466 7.87729C12.4587 7.92864 12.4829 7.97636 12.5171 8.01653C12.5911 8.16253 12.7265 8.3512 12.6818 8.6152C12.6818 8.6152 12.6031 8.74053 12.4651 8.72453C12.4078 8.71186 12.3145 8.6872 12.2651 8.32053C12.2278 8.04253 12.2745 7.65386 12.1565 7.47186C12.1138 7.36186 12.0831 7.25586 11.9791 7.44386C11.9511 7.51786 11.8311 7.62986 11.9185 7.8612C11.9898 8.0072 12.0185 8.2452 11.9865 8.51053C11.9371 8.58586 11.9265 8.6112 11.8618 8.68653C11.7711 8.78386 11.6731 8.7592 11.5978 8.72253C11.5271 8.6752 11.4725 8.65053 11.4405 8.49986C11.4465 8.25986 11.4598 7.86653 11.4158 7.7832C11.3511 7.65386 11.2445 7.70053 11.1985 7.73986C10.9791 7.94053 10.8711 8.27853 10.8051 8.5472C10.7445 8.7432 10.6798 8.6872 10.6345 8.60786C10.5238 8.50386 10.5165 7.69253 10.3825 7.82653C10.1671 8.43586 10.5038 9.1052 10.7371 9.03986Z" fill="white"/>
<path d="M13.9246 10.3495L13.8606 10.3129L12.6066 10.3069C12.5419 10.2822 12.5613 10.2609 12.6066 10.2435C12.9059 10.2029 13.4386 10.1162 13.4739 9.60487C13.4679 9.33887 13.3593 9.1642 13.0326 9.1162C12.7933 9.13487 12.6219 9.36753 12.6493 9.62287C12.6379 9.6922 12.6719 9.82687 12.6019 9.8422C12.1413 9.8842 11.6393 10.1722 11.6226 10.3789C11.5946 10.3982 11.5319 10.3422 11.5399 10.2542C11.5176 9.8778 11.4093 9.51153 11.2233 9.18353C11.0779 9.0382 11.1233 9.0862 11.0259 9.15487C10.9633 9.22687 10.9519 9.2762 10.9553 9.41953C10.9553 9.42487 11.0726 9.7522 11.1719 9.98153C11.2379 10.2169 11.2999 10.4855 11.2553 10.7395C11.1006 11.0755 10.7893 11.3769 10.4893 11.5402C10.3346 11.5902 10.2019 11.5722 10.1693 11.5375C10.0739 11.4735 10.0786 11.3555 10.0859 11.3535C10.3386 11.1769 10.6279 11.0349 10.8546 10.5595C10.9213 10.3782 10.9413 10.2682 10.8753 9.98753C10.8574 9.88847 10.8119 9.79648 10.7439 9.7222C10.7846 9.69553 10.9013 9.7842 10.9193 9.73153C10.8856 9.57787 10.8091 9.43688 10.6986 9.32487C10.6086 9.24287 10.5106 9.23353 10.4279 9.30887C10.3346 9.36087 10.3146 9.5462 10.3593 9.70887C10.4086 9.83153 10.5426 9.8522 10.6386 10.0982C10.6386 10.1035 10.6733 10.2822 10.6239 10.3522C10.5846 10.4749 10.0746 10.8755 10.0466 10.8935C10.0326 10.9109 10.0386 10.8849 10.0366 10.8182C10.0333 10.7369 10.0693 10.5449 10.0593 10.5435C9.89326 10.6509 9.83793 10.9795 9.80793 11.0769C9.38793 11.3669 8.9126 11.5829 8.63793 11.8775C8.4946 12.1009 9.62326 11.6209 9.7546 11.5629C9.78393 11.5842 9.7806 11.6849 9.85926 11.7749C9.9766 11.9335 10.2246 12.0315 10.4679 11.9709C10.8746 11.8235 11.1099 11.5462 11.3486 11.2389C11.3826 11.1889 11.4359 11.1509 11.4853 11.1889C11.6493 11.5562 12.1233 11.8162 12.7346 11.8435C12.8766 11.6709 12.8079 11.5875 12.7506 11.5515C12.7506 11.5462 12.4486 11.4315 12.4026 11.3169C12.3746 11.2129 12.4426 11.1215 12.5786 11.0522C12.9713 11.0049 13.3573 10.9522 13.7313 10.8322C13.7353 10.7069 13.8079 10.5189 13.8579 10.4375C13.9059 10.3549 13.9319 10.3795 13.9246 10.3495ZM12.8933 9.5682C12.9119 9.53687 12.9739 9.5382 13.0319 9.5722C13.0899 9.6062 13.1226 9.65887 13.1033 9.6902C13.0846 9.7222 13.0219 9.7202 12.9639 9.6862C12.9059 9.6522 12.8746 9.6002 12.8933 9.5682ZM12.3886 10.8349C12.2539 10.8809 12.1246 10.9169 12.1246 11.1115C12.1746 11.3822 12.0559 11.2895 11.9859 11.2522C11.9033 11.1929 11.6706 11.0495 11.6373 10.7402C11.6319 10.6662 11.6899 10.6042 11.7826 10.6042C11.9219 10.6422 12.1279 10.6449 12.3066 10.6635C12.4526 10.6729 12.5253 10.7875 12.3886 10.8349ZM7.74393 7.83153C7.88793 7.90087 8.15993 7.87153 8.14793 7.6382C8.14793 7.61753 8.1426 7.5482 8.1406 7.52953C8.11126 7.46087 8.03126 7.47753 8.0126 7.54887C8.0066 7.5722 8.0226 7.60953 8.00193 7.62153C7.98993 7.63353 7.94393 7.6262 7.94593 7.5622C7.94593 7.54153 7.9306 7.51953 7.92193 7.50687C7.9126 7.50087 7.90726 7.49887 7.8906 7.49887C7.8706 7.49953 7.8706 7.50487 7.85993 7.5222C7.85526 7.53887 7.8486 7.5562 7.8486 7.57553C7.84593 7.5982 7.83726 7.6062 7.8206 7.6102C7.80193 7.6102 7.80593 7.6122 7.79126 7.6022C7.78193 7.5922 7.7706 7.5882 7.7706 7.57153C7.77029 7.55207 7.76715 7.53275 7.76126 7.5142C7.75282 7.50442 7.74104 7.49798 7.72593 7.49487C7.64726 7.49487 7.64193 7.58487 7.6466 7.61953C7.63926 7.62553 7.6366 7.78687 7.74393 7.83153Z" fill="white"/>
<path d="M12.1744 9.35138C12.1744 9.33071 12.1591 9.30938 12.1504 9.29604C12.1411 9.29004 12.1358 9.28804 12.1191 9.28804C12.0991 9.28871 12.0998 9.29404 12.0884 9.31138C12.0838 9.32871 12.0771 9.34538 12.0771 9.36471C12.0751 9.38804 12.0658 9.39604 12.0491 9.39938C12.0304 9.39938 12.0344 9.40138 12.0191 9.39204C12.0098 9.38204 11.9984 9.37804 11.9984 9.36138C11.9981 9.34191 11.995 9.3226 11.9891 9.30404C11.9807 9.29427 11.9689 9.28804 11.9538 9.28538C11.8751 9.28538 11.8698 9.37538 11.8738 9.40938C11.8678 9.41604 11.8644 9.57671 11.9718 9.62204C12.1164 9.69071 12.4598 9.65071 12.3758 9.42871C12.3743 9.39221 12.3719 9.35575 12.3684 9.31938C12.3391 9.25071 12.2584 9.26804 12.2404 9.33871C12.2351 9.36204 12.2511 9.39938 12.2298 9.41138C12.2191 9.42338 12.1724 9.41604 12.1744 9.35138ZM14.4391 8.88004C14.5831 8.94938 14.8544 8.92004 14.8424 8.68738C14.841 8.65087 14.8386 8.61441 14.8351 8.57804C14.8058 8.50938 14.7258 8.52671 14.7078 8.59738C14.7018 8.62071 14.7178 8.65804 14.6964 8.67004C14.6844 8.68204 14.6384 8.67538 14.6404 8.61071C14.6404 8.59004 14.6251 8.56804 14.6164 8.55538C14.6071 8.54938 14.6018 8.54738 14.5844 8.54738C14.5645 8.54871 14.5651 8.55338 14.5538 8.57071C14.5491 8.58804 14.5424 8.60471 14.5424 8.62404C14.5398 8.64738 14.5311 8.65538 14.5144 8.65871C14.4958 8.65871 14.4998 8.66071 14.4844 8.65138C14.4751 8.64138 14.4644 8.63738 14.4644 8.62071C14.4642 8.60102 14.4611 8.58148 14.4551 8.56271C14.4462 8.55293 14.4342 8.54671 14.4191 8.54404C14.3404 8.54404 14.3351 8.63404 14.3398 8.66804C14.3351 8.67471 14.3318 8.83538 14.4391 8.88004ZM14.5364 7.97871C14.5878 8.12271 14.4971 8.26004 14.5511 8.28004C14.5998 8.30271 14.6691 8.13138 14.6944 7.97338C14.7244 7.84538 14.6331 7.58338 14.5038 7.52938C14.4251 7.51071 14.3131 7.55738 14.3491 7.66271C14.3311 7.71338 14.5078 7.88538 14.5364 7.97871ZM15.8664 11.3547C15.9671 11.3554 16.0831 11.1247 16.1324 10.896C16.1598 10.5814 16.1138 10.39 16.1058 10.2047C16.0978 10.0194 15.8971 8.61004 15.8558 8.47004C15.8071 8.20538 16.0511 8.43471 16.0245 8.28071C15.9398 8.08671 15.7298 7.80471 15.6631 7.63604C15.6231 7.56404 15.6404 7.50004 15.5511 7.61738C15.4691 7.88738 15.4404 8.10738 15.4718 8.27538C15.6838 9.38204 15.9011 10.302 15.8664 11.3547ZM18.3704 8.46138C18.3938 8.53338 18.3351 8.76604 18.3838 8.78738C18.4284 8.81138 18.4911 8.62671 18.5144 8.45538C18.5271 8.36138 18.4584 8.03338 18.3404 7.97471C18.2684 7.95471 18.1664 8.00471 18.1998 8.11938C18.1831 8.17471 18.3444 8.36004 18.3704 8.46138ZM9.62445 10.8987C9.66778 10.9167 9.72712 10.7807 9.74978 10.6547C9.76245 10.5854 9.69578 10.3447 9.58312 10.3014C9.51378 10.2867 9.41912 10.3054 9.44845 10.408C9.44512 10.4634 9.60178 10.53 9.61112 10.6587C9.63378 10.712 9.57778 10.8834 9.62445 10.8987ZM6.58712 7.82204C6.60912 7.87738 6.56512 8.05404 6.61112 8.07071C6.65312 8.08938 6.71245 7.94804 6.73445 7.81804C6.74712 7.74604 6.73712 7.50204 6.57045 7.45204C6.50178 7.43671 6.40645 7.47471 6.43778 7.56204C6.42178 7.60338 6.56245 7.74471 6.58712 7.82204ZM9.85512 8.60404C9.72778 8.67338 9.67778 8.87871 9.75778 8.99804C9.83178 9.10404 9.94912 9.06471 9.96512 9.06471C10.0904 9.08004 10.1644 8.83004 10.1644 8.83004C10.1644 8.83004 10.1684 8.76004 10.0198 8.89271C9.95712 8.90471 9.94912 8.88138 9.93378 8.84538C9.9188 8.78012 9.92559 8.71175 9.95312 8.65071C9.97445 8.58871 9.92645 8.56138 9.85512 8.60404ZM10.8164 7.83538C10.8369 7.82258 10.8545 7.80566 10.868 7.78568C10.8816 7.76571 10.8908 7.74312 10.8951 7.71938C10.9144 7.62204 10.7918 7.76538 10.7764 7.65671C10.7491 7.55604 10.8278 7.51471 10.9024 7.41738C10.9051 7.35004 10.9038 7.30271 10.8124 7.35738C10.7484 7.40071 10.6204 7.53271 10.6164 7.68471C10.6124 7.77071 10.5964 7.77004 10.6531 7.82471C10.6938 7.88404 10.7344 7.87804 10.8164 7.83538ZM11.6824 7.88738C11.7651 7.66338 11.7651 7.56871 11.7711 7.47338C11.7458 7.32871 11.6478 7.33338 11.5831 7.49404C11.5551 7.55471 11.5224 7.87404 11.5278 7.87404C11.5058 7.96938 11.6271 8.01004 11.6824 7.88738ZM17.1291 9.47604C17.1291 9.47604 16.4604 9.95138 16.4444 9.96804C16.3778 10.0267 16.4111 10.2347 16.4444 10.2107C16.4918 10.2294 17.1644 9.77271 17.1511 9.71938C17.1824 9.72071 17.1978 9.45204 17.1291 9.47604ZM17.0471 10.7654C17.0918 10.7894 17.2098 10.6434 17.2051 10.4614C17.2184 10.3674 17.1711 10.0227 17.0538 9.96404C16.9818 9.94404 16.8858 10.0054 16.9191 10.1194C16.9024 10.174 17.0018 10.3654 17.0278 10.4667C17.0511 10.5394 16.9984 10.744 17.0471 10.7654ZM13.2604 11.7627C13.2604 11.7687 13.3171 11.8174 13.3838 11.7787C13.5238 11.7247 13.6118 11.6727 13.8078 11.6294C13.8591 11.6287 13.8558 11.4907 13.7744 11.486C13.6684 11.4914 13.5698 11.4967 13.4638 11.5807C13.3984 11.5954 13.3878 11.556 13.3731 11.52C13.3571 11.4314 13.4098 11.37 13.3984 11.304C13.4024 11.308 13.3378 11.2487 13.2718 11.282C13.2685 11.282 13.1244 11.3794 13.0784 11.4474C13.0498 11.4694 13.0531 11.488 13.0618 11.5247C13.0838 11.5754 13.1231 11.56 13.1671 11.536C13.2258 11.528 13.2538 11.5667 13.2491 11.6367C13.2211 11.7254 13.2604 11.758 13.2604 11.7627ZM17.6278 11.8734C17.6058 11.9114 17.5911 11.9687 17.6591 11.9867C17.7844 12.022 18.0731 11.834 18.0731 11.8307C18.1198 11.7954 18.1044 11.7294 18.1004 11.7294C18.0731 11.698 18.0118 11.716 17.9704 11.7114C17.9511 11.7114 17.8858 11.7014 17.9171 11.644C17.9391 11.6131 17.9566 11.5792 17.9691 11.5434C17.9885 11.5 17.9718 11.4714 17.9011 11.448C17.8298 11.4347 17.8011 11.4414 17.7218 11.448C17.6791 11.4574 17.6644 11.476 17.6565 11.528C17.6598 11.6067 17.7071 11.6027 17.7564 11.634C17.7851 11.6707 17.8038 11.704 17.7544 11.7634C17.7078 11.8067 17.6751 11.8307 17.6278 11.8734ZM17.4998 15.3334H16.4998V15C16.4998 14.9116 16.4647 14.8269 16.4022 14.7643C16.3396 14.7018 16.2549 14.6667 16.1664 14.6667C16.078 14.6667 15.9933 14.7018 15.9307 14.7643C15.8682 14.8269 15.8331 14.9116 15.8331 15V15.3334H7.83312C7.83312 15.3334 7.83312 16 9.83312 16H15.8331V16.3334C15.8331 16.4218 15.8682 16.5066 15.9307 16.5691C15.9933 16.6316 16.078 16.6667 16.1664 16.6667C16.2549 16.6667 16.3396 16.6316 16.4022 16.5691C16.4647 16.5066 16.4998 16.4218 16.4998 16.3334V16H17.1664V16.3334C17.1664 16.4218 17.2016 16.5066 17.2641 16.5691C17.3266 16.6316 17.4114 16.6667 17.4998 16.6667C17.5882 16.6667 17.673 16.6316 17.7355 16.5691C17.798 16.5066 17.8331 16.4218 17.8331 16.3334V15.6667C17.8331 15.5783 17.798 15.4935 17.7355 15.431C17.673 15.3685 17.5882 15.3334 17.4998 15.3334Z" fill="white"/>
</g>
<defs>
<clipPath id="clip0_5238_2025">
<rect width="24" height="24" fill="white" transform="translate(0.5)"/>
</clipPath>
</defs>
</svg>
