<svg width="25" height="24" viewBox="0 0 25 24" fill="none" xmlns="http://www.w3.org/2000/svg">
<path fill-rule="evenodd" clip-rule="evenodd" d="M12.5 2.75C11.9033 2.75 11.331 2.98705 10.909 3.40901C10.4871 3.83097 10.25 4.40326 10.25 5V5.26C10.807 5.25 11.418 5.25 12.09 5.25H12.911C13.581 5.25 14.193 5.25 14.751 5.26V5C14.751 4.70444 14.6928 4.41178 14.5796 4.13873C14.4665 3.86568 14.3007 3.6176 14.0916 3.40866C13.8826 3.19971 13.6345 3.034 13.3614 2.92098C13.0883 2.80797 12.7956 2.74987 12.5 2.75ZM16.25 5.328V5C16.25 4.00544 15.8549 3.05161 15.1517 2.34835C14.4484 1.64509 13.4946 1.25 12.5 1.25C11.5054 1.25 10.5516 1.64509 9.84836 2.34835C9.1451 3.05161 8.75001 4.00544 8.75001 5V5.328C8.60734 5.34 8.46934 5.35433 8.33601 5.371C7.32601 5.496 6.49401 5.758 5.78601 6.345C5.07801 6.932 4.66801 7.702 4.36001 8.672C4.06001 9.612 3.83401 10.819 3.55001 12.338L3.52901 12.448C3.12701 14.591 2.81101 16.28 2.75201 17.611C2.69201 18.976 2.89601 20.106 3.66601 21.033C4.43601 21.961 5.50901 22.369 6.86101 22.562C8.18101 22.75 9.89801 22.75 12.079 22.75H12.924C15.104 22.75 16.822 22.75 18.141 22.562C19.493 22.369 20.567 21.961 21.337 21.033C22.107 20.105 22.309 18.976 22.25 17.611C22.192 16.28 21.875 14.591 21.473 12.448L21.453 12.338C21.168 10.819 20.941 9.611 20.643 8.672C20.333 7.702 19.923 6.932 19.215 6.345C18.508 5.758 17.675 5.495 16.665 5.371C16.5273 5.35406 16.3893 5.33972 16.251 5.328M8.52001 6.86C7.66501 6.965 7.14801 7.164 6.74401 7.5C6.34101 7.834 6.05001 8.305 5.78801 9.127C5.52101 9.967 5.31001 11.085 5.01401 12.664C4.59801 14.881 4.30301 16.464 4.25001 17.677C4.19801 18.867 4.39001 19.557 4.81901 20.076C5.24901 20.593 5.89201 20.908 7.07201 21.076C8.27201 21.248 9.88401 21.25 12.14 21.25H12.86C15.117 21.25 16.727 21.248 17.928 21.077C19.108 20.908 19.751 20.593 20.181 20.076C20.611 19.558 20.802 18.868 20.751 17.676C20.697 16.465 20.402 14.881 19.986 12.664C19.69 11.084 19.48 9.968 19.212 9.127C18.95 8.305 18.66 7.834 18.256 7.499C17.852 7.164 17.336 6.965 16.48 6.859C15.604 6.751 14.467 6.75 12.86 6.75H12.14C10.533 6.75 9.39601 6.751 8.52001 6.86ZM14.998 11.94C15.1465 12.072 15.2366 12.2576 15.2484 12.456C15.2602 12.6543 15.1928 12.8493 15.061 12.998L12.394 15.998C12.3284 16.0719 12.2488 16.1321 12.1598 16.1752C12.0708 16.2182 11.9742 16.2433 11.8755 16.2488C11.7768 16.2544 11.678 16.2404 11.5847 16.2077C11.4914 16.1749 11.4056 16.1241 11.332 16.058L9.99801 14.858C9.85002 14.7249 9.76098 14.5384 9.75048 14.3396C9.73998 14.1408 9.80887 13.946 9.94201 13.798C10.0751 13.65 10.2616 13.561 10.4604 13.5505C10.6592 13.54 10.854 13.6089 11.002 13.742L11.774 14.438L13.94 12.002C14.072 11.8535 14.2576 11.7634 14.456 11.7516C14.6543 11.7398 14.8493 11.8082 14.998 11.94Z" fill="#F26426"/>
</svg>
