<svg width="25" height="24" viewBox="0 0 25 24" fill="none" xmlns="http://www.w3.org/2000/svg">
<path d="M10.4 0H9.05L8.15 3.45L7.25 0H5.75C6.05 0.9 6.35 1.65 6.65 2.55C7.1 3.75 7.4 4.8 7.4 5.4V9H8.75V5.4L10.4 0ZM14 6.75V4.5C14 3.75 13.85 3.3 13.55 2.85C13.25 2.4 12.8 2.25 12.2 2.25C11.6 2.25 11.15 2.55 10.85 3C10.55 3.3 10.4 3.75 10.4 4.5V6.9C10.4 7.65 10.55 8.1 10.85 8.4C11.15 8.85 11.6 9 12.2 9C12.8 9 13.25 8.7 13.55 8.25C13.85 8.1 14 7.5 14 6.75ZM12.8 7.05C12.8 7.65 12.65 7.95 12.2 7.95C11.75 7.95 11.6 7.65 11.6 7.05V4.2C11.6 3.6 11.75 3.3 12.2 3.3C12.65 3.3 12.8 3.6 12.8 4.2V7.05ZM18.5 9V2.25H17.3V7.35C17 7.8 16.85 7.95 16.55 7.95C16.4 7.95 16.25 7.8 16.25 7.65V2.25H15.05V7.5C15.05 7.95 15.05 8.25 15.2 8.55C15.2 8.85 15.5 9 15.95 9C16.4 9 16.85 8.7 17.3 8.25V9H18.5ZM19.1 15.75C18.65 15.75 18.5 16.05 18.5 16.65V17.25H19.7V16.65C19.7 16.05 19.55 15.75 19.1 15.75ZM14.75 15.75C14.6 15.75 14.3 15.9 14.15 16.05V20.1C14.3 20.25 14.6 20.4 14.75 20.4C15.05 20.4 15.2 20.1 15.2 19.5V16.65C15.2 16.05 15.05 15.75 14.75 15.75Z" fill="white"/>
<path d="M22.1001 12.45C21.8001 11.4 20.9001 10.5 20.0001 10.5C17.6001 10.2 15.0501 10.2 12.5001 10.2C9.9501 10.2 7.5501 10.2 5.0001 10.5C4.1001 10.5 3.2001 11.4 2.9001 12.45C2.6001 13.95 2.6001 15.5999 2.6001 17.0999C2.6001 18.5999 2.6001 20.25 2.9001 21.75C3.2001 22.7999 3.9501 23.5499 5.0001 23.7C7.5501 24 9.9501 23.9999 12.5001 23.9999C15.0501 23.9999 17.4501 24 20.0001 23.7C21.0501 23.5499 21.9501 22.7999 22.1001 21.75C22.4001 20.25 22.4001 18.5999 22.4001 17.0999C22.4001 15.5999 22.4001 13.95 22.1001 12.45ZM8.3001 13.8H6.8001V21.45H5.4501V13.8H4.1001V12.45H8.3001V13.8ZM11.9001 21.45H10.7001V20.7C10.2501 21.3 9.8001 21.45 9.3501 21.45C8.9001 21.45 8.7501 21.2999 8.6001 21C8.6001 20.8499 8.4501 20.55 8.4501 19.95V14.7H9.6501V19.95C9.6501 20.1 9.8001 20.25 9.9501 20.25C10.2501 20.25 10.4001 20.1 10.7001 19.65V14.7H11.9001V21.45ZM16.4001 19.3499C16.4001 19.9499 16.4001 20.4 16.2501 20.7C16.1001 21.15 15.8001 21.45 15.3501 21.45C14.9001 21.45 14.4501 21.15 14.1501 20.7V21.2999H12.9501V12.45H14.1501V15.3C14.6001 14.85 14.9001 14.55 15.3501 14.55C15.8001 14.55 16.1001 14.85 16.2501 15.3C16.4001 15.6 16.4001 16.05 16.4001 16.65V19.3499ZM20.9001 18.2999H18.5001V19.5C18.5001 20.0999 18.6501 20.4 19.1001 20.4C19.4001 20.4 19.5501 20.25 19.7001 19.95V19.2H20.9001V20.0999C20.9001 20.3999 20.7501 20.5499 20.6001 20.8499C20.3001 21.2999 19.8501 21.5999 19.1001 21.5999C18.5001 21.5999 18.0501 21.2999 17.6001 20.8499C17.3001 20.5499 17.1501 19.9499 17.1501 19.3499V17.0999C17.1501 16.3499 17.3001 15.9 17.4501 15.5999C17.7501 15.15 18.2001 14.8499 18.9501 14.8499C19.5501 14.8499 20.0001 15.15 20.3001 15.5999C20.6001 15.9 20.6001 16.4999 20.6001 17.0999V18.2999H20.9001Z" fill="white"/>
</svg>
