<svg width="24" height="24" viewBox="0 0 24 24" fill="none" xmlns="http://www.w3.org/2000/svg">
<g clip-path="url(#clip0_5164_677)">
<path d="M9.9 0H8.55L7.65 3.45L6.75 0H5.25C5.55 0.9 5.85 1.65 6.15 2.55C6.6 3.75 6.9 4.8 6.9 5.4V9H8.25V5.4L9.9 0ZM13.5 6.75V4.5C13.5 3.75 13.35 3.3 13.05 2.85C12.75 2.4 12.3 2.25 11.7 2.25C11.1 2.25 10.65 2.55 10.35 3C10.05 3.3 9.9 3.75 9.9 4.5V6.9C9.9 7.65 10.05 8.1 10.35 8.4C10.65 8.85 11.1 9 11.7 9C12.3 9 12.75 8.7 13.05 8.25C13.35 8.1 13.5 7.5 13.5 6.75ZM12.3 7.05C12.3 7.65 12.15 7.95 11.7 7.95C11.25 7.95 11.1 7.65 11.1 7.05V4.2C11.1 3.6 11.25 3.3 11.7 3.3C12.15 3.3 12.3 3.6 12.3 4.2V7.05ZM18 9V2.25H16.8V7.35C16.5 7.8 16.35 7.95 16.05 7.95C15.9 7.95 15.75 7.8 15.75 7.65V2.25H14.55V7.5C14.55 7.95 14.55 8.25 14.7 8.55C14.7 8.85 15 9 15.45 9C15.9 9 16.35 8.7 16.8 8.25V9H18ZM18.6 15.75C18.15 15.75 18 16.05 18 16.65V17.25H19.2V16.65C19.2 16.05 19.05 15.75 18.6 15.75ZM14.25 15.75C14.1 15.75 13.8 15.9 13.65 16.05V20.1C13.8 20.25 14.1 20.4 14.25 20.4C14.55 20.4 14.7 20.1 14.7 19.5V16.65C14.7 16.05 14.55 15.75 14.25 15.75Z" fill="white"/>
<path d="M21.6001 12.4502C21.3001 11.4002 20.4001 10.5002 19.5001 10.5002C17.1001 10.2002 14.5501 10.2002 12.0001 10.2002C9.4501 10.2002 7.0501 10.2002 4.5001 10.5002C3.6001 10.5002 2.7001 11.4002 2.4001 12.4502C2.1001 13.9502 2.1001 15.6002 2.1001 17.1002C2.1001 18.6002 2.1001 20.2502 2.4001 21.7502C2.7001 22.8002 3.4501 23.5502 4.5001 23.7002C7.0501 24.0002 9.4501 24.0002 12.0001 24.0002C14.5501 24.0002 16.9501 24.0002 19.5001 23.7002C20.5501 23.5502 21.4501 22.8002 21.6001 21.7502C21.9001 20.2502 21.9001 18.6002 21.9001 17.1002C21.9001 15.6002 21.9001 13.9502 21.6001 12.4502ZM7.8001 13.8002H6.3001V21.4502H4.9501V13.8002H3.6001V12.4502H7.8001V13.8002ZM11.4001 21.4502H10.2001V20.7002C9.7501 21.3002 9.3001 21.4502 8.8501 21.4502C8.4001 21.4502 8.2501 21.3002 8.1001 21.0002C8.1001 20.8502 7.9501 20.5502 7.9501 19.9502V14.7002H9.1501V19.9502C9.1501 20.1002 9.3001 20.2502 9.4501 20.2502C9.7501 20.2502 9.9001 20.1002 10.2001 19.6502V14.7002H11.4001V21.4502ZM15.9001 19.3502C15.9001 19.9502 15.9001 20.4002 15.7501 20.7002C15.6001 21.1502 15.3001 21.4502 14.8501 21.4502C14.4001 21.4502 13.9501 21.1502 13.6501 20.7002V21.3002H12.4501V12.4502H13.6501V15.3002C14.1001 14.8502 14.4001 14.5502 14.8501 14.5502C15.3001 14.5502 15.6001 14.8502 15.7501 15.3002C15.9001 15.6002 15.9001 16.0502 15.9001 16.6502V19.3502ZM20.4001 18.3002H18.0001V19.5002C18.0001 20.1002 18.1501 20.4002 18.6001 20.4002C18.9001 20.4002 19.0501 20.2502 19.2001 19.9502V19.2002H20.4001V20.1002C20.4001 20.4002 20.2501 20.5502 20.1001 20.8502C19.8001 21.3002 19.3501 21.6002 18.6001 21.6002C18.0001 21.6002 17.5501 21.3002 17.1001 20.8502C16.8001 20.5502 16.6501 19.9502 16.6501 19.3502V17.1002C16.6501 16.3502 16.8001 15.9002 16.9501 15.6002C17.2501 15.1502 17.7001 14.8502 18.4501 14.8502C19.0501 14.8502 19.5001 15.1502 19.8001 15.6002C20.1001 15.9002 20.1001 16.5002 20.1001 17.1002V18.3002H20.4001Z" fill="white"/>
</g>
<defs>
<clipPath id="clip0_5164_677">
<rect width="24" height="24" fill="white"/>
</clipPath>
</defs>
</svg>
